<svg xmlns="http://www.w3.org/2000/svg" width="19.739" height="24" viewBox="0 0 19.739 24">
  <path id="delete" d="M18.535,4.5H1.264A1.1,1.1,0,0,1,.4,4.066,1.58,1.58,0,0,1,.031,3.012,1.654,1.654,0,0,1,.388,1.946,1.083,1.083,0,0,1,1.265,1.5H7.433A1.635,1.635,0,0,1,7.79.446,1.085,1.085,0,0,1,8.667,0h2.468a1.085,1.085,0,0,1,.877.445A1.635,1.635,0,0,1,12.368,1.5h6.168a1.094,1.094,0,0,1,.867.445,1.625,1.625,0,0,1,.366,1.066A1.578,1.578,0,0,1,19.4,4.066a1.106,1.106,0,0,1-.867.434Zm0,16.5a3.234,3.234,0,0,1-.723,2.121A2.186,2.186,0,0,1,16.068,24H3.731a2.189,2.189,0,0,1-1.745-.879A3.228,3.228,0,0,1,1.264,21V6H18.535V21ZM6.2,10.5a1.608,1.608,0,0,0-.366-1.054A1.1,1.1,0,0,0,4.956,9a1.075,1.075,0,0,0-.867.445A1.639,1.639,0,0,0,3.732,10.5v9a1.624,1.624,0,0,0,.357,1.066A1.086,1.086,0,0,0,4.956,21a1.113,1.113,0,0,0,.877-.434A1.593,1.593,0,0,0,6.2,19.5v-9Zm4.935,0a1.608,1.608,0,0,0-.366-1.054A1.1,1.1,0,0,0,9.89,9a1.075,1.075,0,0,0-.867.445A1.639,1.639,0,0,0,8.666,10.5v9a1.624,1.624,0,0,0,.357,1.066A1.086,1.086,0,0,0,9.89,21a1.113,1.113,0,0,0,.877-.434,1.593,1.593,0,0,0,.366-1.066v-9Zm4.935,0A1.608,1.608,0,0,0,15.7,9.446,1.1,1.1,0,0,0,14.825,9a1.075,1.075,0,0,0-.867.445A1.639,1.639,0,0,0,13.6,10.5v9a1.624,1.624,0,0,0,.357,1.066,1.086,1.086,0,0,0,.867.434,1.113,1.113,0,0,0,.877-.434,1.593,1.593,0,0,0,.366-1.066v-9Z" transform="translate(-0.031 -0.001)"/>
</svg>
