<svg xmlns="http://www.w3.org/2000/svg" width="15.951" height="15.951" viewBox="0 0 15.951 15.951">
  <g id="minus-circle-line" transform="translate(-2 -2)">
    <path id="Path_18" data-name="Path 18" d="M17.473,12.9c-8.141.008-.032.023-8.145,0a.5.5,0,1,0,0,1c8.144-.005,0-.036,8.145,0a.5.5,0,1,0,0-1Z" transform="translate(-3.426 -3.426)"/>
    <path id="Path_19" data-name="Path 19" d="M9.975,2a7.975,7.975,0,1,0,7.975,7.975A7.975,7.975,0,0,0,9.975,2Zm0,14.954a6.978,6.978,0,1,1,6.978-6.978,6.978,6.978,0,0,1-6.978,6.978Z"/>
  </g>
</svg>
