<svg xmlns="http://www.w3.org/2000/svg" width="64" height="68.267" viewBox="0 0 64 68.267">
  <path id="cashregister" d="M59.733,68.267H4.267A4.071,4.071,0,0,1,1.233,67,4.147,4.147,0,0,1,0,64V55.467a4.128,4.128,0,0,1,1.233-3.034A4.114,4.114,0,0,1,4.267,51.2H59.733a4.157,4.157,0,0,1,3,1.233A4.067,4.067,0,0,1,64,55.467V64a4.326,4.326,0,0,1-4.267,4.267Zm-25.6-12.8H29.867A4.128,4.128,0,0,0,26.833,56.7a4.073,4.073,0,0,0-1.233,3,4.207,4.207,0,0,0,1.233,3.034A4.063,4.063,0,0,0,29.867,64h4.267A4.326,4.326,0,0,0,38.4,59.7a4.028,4.028,0,0,0-1.267-3A4.157,4.157,0,0,0,34.133,55.467Zm25.6-8.533H4.267a4.071,4.071,0,0,1-3.034-1.267,4.147,4.147,0,0,1-1.233-3V21.333q0-1.8,3.366-5.167T8.533,12.8V4.267A4.128,4.128,0,0,1,9.766,1.233,4.114,4.114,0,0,1,12.8,0H51.2a4.157,4.157,0,0,1,3,1.233,4.067,4.067,0,0,1,1.267,3.034V12.8q1.733,0,5.133,3.366T64,21.333V42.667a4.326,4.326,0,0,1-4.267,4.267Zm-25.6-6.4a2.163,2.163,0,0,0,2.133,2.133h4.267a2.163,2.163,0,0,0,2.133-2.133V36.267a2.163,2.163,0,0,0-2.133-2.133H36.267a2.163,2.163,0,0,0-2.133,2.133Zm0-12.8a2.163,2.163,0,0,0,2.133,2.133h4.267a2.163,2.163,0,0,0,2.133-2.133V23.467a2.163,2.163,0,0,0-2.133-2.133H36.267a2.163,2.163,0,0,0-2.133,2.133Zm-12.8,12.8a2.163,2.163,0,0,0,2.133,2.133h4.267a2.163,2.163,0,0,0,2.133-2.133V36.267a2.163,2.163,0,0,0-2.133-2.133H23.467a2.163,2.163,0,0,0-2.133,2.133Zm0-12.8a2.163,2.163,0,0,0,2.133,2.133h4.267a2.163,2.163,0,0,0,2.133-2.133V23.467a2.163,2.163,0,0,0-2.133-2.133H23.467a2.163,2.163,0,0,0-2.133,2.133Zm-12.8,12.8a2.163,2.163,0,0,0,2.133,2.133h4.267a2.163,2.163,0,0,0,2.133-2.133V36.267a2.163,2.163,0,0,0-2.133-2.133H10.667a2.163,2.163,0,0,0-2.133,2.133Zm6.4-19.2H10.667a2.163,2.163,0,0,0-2.133,2.133v4.267a2.163,2.163,0,0,0,2.133,2.133h4.267a2.163,2.163,0,0,0,2.133-2.133V23.467a2.163,2.163,0,0,0-2.133-2.133Zm32-10.667A2.163,2.163,0,0,0,44.8,8.533H19.2a2.163,2.163,0,0,0-2.133,2.133v4.267A2.163,2.163,0,0,0,19.2,17.067H44.8a2.163,2.163,0,0,0,2.133-2.133Zm8.533,12.8a2.163,2.163,0,0,0-2.133-2.133H49.067a2.163,2.163,0,0,0-2.133,2.133v4.267a2.163,2.163,0,0,0,2.133,2.133h4.267a2.163,2.163,0,0,0,2.133-2.133Zm0,12.8a2.163,2.163,0,0,0-2.133-2.133H49.067a2.163,2.163,0,0,0-2.133,2.133v4.267a2.163,2.163,0,0,0,2.133,2.133h4.267a2.163,2.163,0,0,0,2.133-2.133Z" transform="translate(0)" fill="#555"/>
</svg>
