<svg xmlns="http://www.w3.org/2000/svg" width="64.075" height="54.922" viewBox="0 0 64.075 54.922">
  <g id="categories" transform="translate(-2.25 -4.5)">
    <path id="Path_1" data-name="Path 1" d="M13.143,9.077l1.029,2.036,1.259,2.541h9.7V25.1H6.827V9.077h6.316M14.563,4.5H4.538A2.288,2.288,0,0,0,2.25,6.788v20.6a2.288,2.288,0,0,0,2.288,2.288H27.422a2.288,2.288,0,0,0,2.288-2.288V11.365a2.288,2.288,0,0,0-2.288-2.288H18.269L16.621,5.759A2.288,2.288,0,0,0,14.563,4.5Z" transform="translate(0)" fill="#555"/>
    <path id="Path_2" data-name="Path 2" d="M31.143,9.077l1.029,2.036,1.259,2.541h9.7V25.1H24.827V9.077h6.316M32.563,4.5H22.538A2.288,2.288,0,0,0,20.25,6.788v20.6a2.288,2.288,0,0,0,2.288,2.288H45.422a2.288,2.288,0,0,0,2.288-2.288V11.365a2.288,2.288,0,0,0-2.288-2.288H36.269L34.621,5.759A2.288,2.288,0,0,0,32.563,4.5Z" transform="translate(18.614)" fill="#555"/>
    <path id="Path_3" data-name="Path 3" d="M13.143,23.7l1.029,2.036,1.259,2.541h9.7V39.721H6.827V23.7h6.316m1.42-4.577H4.538A2.288,2.288,0,0,0,2.25,21.413v20.6A2.288,2.288,0,0,0,4.538,44.3H27.422a2.288,2.288,0,0,0,2.288-2.288V25.99A2.288,2.288,0,0,0,27.422,23.7H18.269l-1.648-3.318a2.288,2.288,0,0,0-2.059-1.259Z" transform="translate(0 15.124)" fill="#555"/>
    <path id="Path_4" data-name="Path 4" d="M31.143,23.7l1.029,2.036,1.259,2.541h9.7V39.721H24.827V23.7h6.316m1.42-4.577H22.538a2.288,2.288,0,0,0-2.288,2.288v20.6A2.288,2.288,0,0,0,22.538,44.3H45.422a2.288,2.288,0,0,0,2.288-2.288V25.99A2.288,2.288,0,0,0,45.422,23.7H36.269l-1.648-3.318a2.288,2.288,0,0,0-2.059-1.259Z" transform="translate(18.614 15.124)" fill="#555"/>
  </g>
</svg>
