<svg id="graph-up" xmlns="http://www.w3.org/2000/svg" width="63.372" height="63.372" viewBox="0 0 63.372 63.372">
  <path id="Path_8" data-name="Path 8" d="M0,0H3.961V63.372H0ZM3.961,59.412H63.372v3.961H3.961Z" fill="#555"/>
  <path id="Path_9" data-name="Path 9" d="M52.468,10.771,35.243,32.311,23.2,20.258,8.757,34.7l-2.8-2.8L23.2,14.656l11.72,11.713L49.377,8.3l3.093,2.472Z" transform="translate(4.526 6.308)" fill="#555" fill-rule="evenodd"/>
  <path id="Path_10" data-name="Path 10" d="M22.5,8.73a1.98,1.98,0,0,1,1.98-1.98H40.323A1.98,1.98,0,0,1,42.3,8.73V24.573a1.98,1.98,0,0,1-3.961,0V10.711H24.48A1.98,1.98,0,0,1,22.5,8.73Z" transform="translate(17.108 5.132)" fill="#555" fill-rule="evenodd"/>
</svg>
