<svg xmlns="http://www.w3.org/2000/svg" width="48" height="47.999" viewBox="0 0 48 47.999">
  <path id="plus" d="M48,20.726v6.545a3.259,3.259,0,0,1-3.273,3.273H30.544V44.725A3.259,3.259,0,0,1,27.271,48H20.726a3.259,3.259,0,0,1-3.273-3.273V30.544H3.273A3.157,3.157,0,0,1,.955,29.59,3.155,3.155,0,0,1,0,27.273V20.726a3.157,3.157,0,0,1,.955-2.319,3.157,3.157,0,0,1,2.319-.955H17.454V3.273A3.157,3.157,0,0,1,18.409.955,3.157,3.157,0,0,1,20.727,0h6.545a3.157,3.157,0,0,1,2.319.955,3.157,3.157,0,0,1,.955,2.319V17.454H44.727A3.259,3.259,0,0,1,48,20.727Z" fill="#555"/>
</svg>
