<svg xmlns="http://www.w3.org/2000/svg" width="56" height="64" viewBox="0 0 56 64">
  <path id="report" d="M52.009,64h-48A3.9,3.9,0,0,1,1.2,62.844,3.813,3.813,0,0,1,.009,60V4.062A3.817,3.817,0,0,1,1.2,1.218,3.888,3.888,0,0,1,4.009.062h28v22a2.028,2.028,0,0,0,2,2h22V60a3.947,3.947,0,0,1-4,4Zm-6-12h-2V38a2.028,2.028,0,0,0-2-2h-4a2.028,2.028,0,0,0-2,2V52h-4V30a2.028,2.028,0,0,0-2-2h-4a2.028,2.028,0,0,0-2,2V52h-4V42a2.028,2.028,0,0,0-2-2h-4a2.028,2.028,0,0,0-2,2V52h-2a2,2,0,0,0,0,4h36a1.9,1.9,0,0,0,1.438-.594A1.967,1.967,0,0,0,48.009,54a2.028,2.028,0,0,0-2-2Zm-10-52a3.741,3.741,0,0,1,2.75,1.125L54.821,17.188a3.916,3.916,0,0,1,1.188,2.875h-20Z" transform="translate(-0.009)" fill="#555"/>
</svg>
