<svg xmlns="http://www.w3.org/2000/svg" width="64.815" height="56.288" viewBox="0 0 64.815 56.288">
  <g id="tags" transform="translate(-1.125 -3.392)">
    <path id="Path_5" data-name="Path 5" d="M51.375,32.556a6.239,6.239,0,0,0-1.922-4.314L25.187,4.6a3.907,3.907,0,0,0-2.771-1.141h-4.33L46.541,31.244l.011.011a2.078,2.078,0,0,1,.1,2.92L26.211,56.828l2.87,2.791L49.738,36.994a6.239,6.239,0,0,0,1.637-4.438Z" transform="translate(14.561 0.061)" fill="#555"/>
    <path id="Path_6" data-name="Path 6" d="M54.819,34.091a3.126,3.126,0,0,0-.684-3.234c-.013-.015-.026-.03-.041-.045L28.346,4.63l-.013-.013a4.154,4.154,0,0,0-2.957-1.225H6.9A5.782,5.782,0,0,0,1.125,9.168V27.606a4.2,4.2,0,0,0,1.312,3.042L29.921,56.811l.009.009a3.113,3.113,0,0,0,2.145.851l.117,0a3.15,3.15,0,0,0,.881-.16,3.117,3.117,0,0,0,1.312-.851L54.174,35.146a3.141,3.141,0,0,0,.643-1.054ZM32.03,53.044,5.316,27.616l-.009-.009V9.168A1.6,1.6,0,0,1,6.9,7.575H25.375L50.425,33.046Z" transform="translate(0 0)" fill="#555"/>
    <path id="Path_7" data-name="Path 7" d="M12.983,7.875a6.795,6.795,0,1,0,6.795,6.795,6.795,6.795,0,0,0-6.795-6.795Zm0,9.41A2.613,2.613,0,1,1,15.6,14.672,2.613,2.613,0,0,1,12.983,17.285Z" transform="translate(4.347 3.849)" fill="#555"/>
  </g>
</svg>
